<svg xmlns="http://www.w3.org/2000/svg" viewBox="0 0 1280 720" role="img" aria-label="Shikumen alley clue">
  <defs>
    <linearGradient id="sky" x1="0" y1="0" x2="0" y2="1">
      <stop offset="0" stop-color="#100b08"/>
      <stop offset="0.55" stop-color="#21160d"/>
      <stop offset="1" stop-color="#070504"/>
    </linearGradient>
    <radialGradient id="lamp" cx="0.42" cy="0.28" r="0.38">
      <stop offset="0" stop-color="#f4e4bc" stop-opacity=".95"/>
      <stop offset=".22" stop-color="#d4af37" stop-opacity=".55"/>
      <stop offset="1" stop-color="#d4af37" stop-opacity="0"/>
    </radialGradient>
    <filter id="grain">
      <feTurbulence type="fractalNoise" baseFrequency=".9" numOctaves="2" stitchTiles="stitch"/>
      <feColorMatrix type="saturate" values="0"/>
      <feComponentTransfer><feFuncA type="table" tableValues="0 .16"/></feComponentTransfer>
    </filter>
  </defs>
  <rect width="1280" height="720" fill="url(#sky)"/>
  <rect width="1280" height="720" fill="url(#lamp)"/>
  <path d="M0 620h1280v100H0z" fill="#0a0705"/>
  <path d="M80 190h250v430H80zM910 150h270v470H910z" fill="#160f0a"/>
  <path d="M120 235h170v350H120zM960 200h170v390H960z" fill="#26180e"/>
  <path d="M143 258h36v310h-36zm63 0h36v310h-36zm63 0h36v310h-36z" fill="#0d0906"/>
  <path d="M987 226h42v333h-42zm72 0h42v333h-42z" fill="#0d0906"/>
  <path d="M350 220h355l55 400H300z" fill="#1d130c"/>
  <path d="M415 280h220v252H415z" fill="#0c0806"/>
  <path d="M450 314h151v185H450z" fill="#2a1b0f"/>
  <path d="M705 240h150v380H705z" fill="#120c08"/>
  <path d="M735 280h90v160h-90z" fill="#2a1a0d"/>
  <path d="M742 292h76v136h-76z" fill="#0a0705"/>
  <path d="M680 135h12v180h-12z" fill="#5b4327"/>
  <circle cx="686" cy="130" r="42" fill="#d4af37" opacity=".24"/>
  <circle cx="686" cy="130" r="18" fill="#f4e4bc" opacity=".9"/>
  <path d="M486 338h85v120h-85z" fill="#c4a77d" opacity=".75"/>
  <path d="M498 354h60M498 374h48M498 394h66M498 414h36" stroke="#5c321d" stroke-width="4" opacity=".68"/>
  <path d="M500 464l132-178" stroke="#d4af37" stroke-width="3" opacity=".62"/>
  <text x="506" y="450" fill="#2b160b" font-family="JetBrains Mono, monospace" font-size="24" transform="rotate(-4 506 450)">7830 / 10-18</text>
  <path d="M0 621c170-50 284-30 420-9 162 25 344 29 530-10 150-31 231-24 330 20v98H0z" fill="#050403" opacity=".75"/>
  <g stroke="#d4af37" stroke-opacity=".24">
    <path d="M0 650h1280M0 680h1280M112 620l-50 100M306 620l-72 100M514 620l-90 100M742 620l74 100M1000 620l112 100"/>
  </g>
  <rect width="1280" height="720" filter="url(#grain)" opacity=".55"/>
</svg>
