<svg xmlns="http://www.w3.org/2000/svg" viewBox="0 0 1280 720" role="img" aria-label="NAMES">
  <defs>
    <linearGradient id="bg" x1="0" y1="0" x2="1" y2="1">
      <stop offset="0" stop-color="#0b0908"/>
      <stop offset=".52" stop-color="#151310"/>
      <stop offset="1" stop-color="#24180f"/>
    </linearGradient>
    <radialGradient id="glow" cx=".5" cy=".46" r=".55">
      <stop offset="0" stop-color="#d7b46a" stop-opacity=".34"/>
      <stop offset=".45" stop-color="#d7b46a" stop-opacity=".09"/>
      <stop offset="1" stop-color="#000" stop-opacity="0"/>
    </radialGradient>
    <filter id="soft"><feGaussianBlur stdDeviation="10"/></filter>
  </defs>
  <rect width="1280" height="720" fill="url(#bg)"/>
  <rect x="28" y="28" width="1224" height="664" rx="6" fill="none" stroke="#d7b46a" stroke-opacity=".55" stroke-width="3"/>
  <rect x="52" y="52" width="1176" height="616" rx="4" fill="none" stroke="#35d6c8" stroke-opacity=".14" stroke-width="2"/>
  <path d="M84 604H1196M84 116H1196" stroke="#d7b46a" stroke-opacity=".22" stroke-width="2"/>
  <circle cx="640" cy="350" r="320" fill="url(#glow)"/>
  <g opacity=".26" stroke="#d7b46a" stroke-width="1.4">
    <path d="M80 92V628"/><path d="M146 92V628"/><path d="M212 92V628"/><path d="M278 92V628"/><path d="M344 92V628"/><path d="M410 92V628"/><path d="M476 92V628"/><path d="M542 92V628"/><path d="M608 92V628"/><path d="M674 92V628"/><path d="M740 92V628"/><path d="M806 92V628"/><path d="M872 92V628"/><path d="M938 92V628"/><path d="M1004 92V628"/><path d="M1070 92V628"/><path d="M1136 92V628"/><path d="M1202 92V628"/>
  </g>
  <g transform="translate(304 126)"><rect x="0" y="0" width="672" height="460" fill="#efe1bd" opacity=".14" stroke="#d7b46a" stroke-width="5"/><path d="M86 118h500M86 188h500M86 258h500M86 328h500" stroke="#d7b46a" stroke-width="4" opacity=".55"/><g fill="#8fe6df"><text x="110" y="95" font-family="monospace" font-size="34">C-19</text><path d="M280 85h220" stroke="#8fe6df" stroke-width="6"/><text x="110" y="165" font-family="monospace" font-size="34">C-21</text><path d="M280 155h220" stroke="#8fe6df" stroke-width="6"/><text x="110" y="235" font-family="monospace" font-size="34">C-23</text><path d="M280 225h220" stroke="#8fe6df" stroke-width="6"/><text x="110" y="305" font-family="monospace" font-size="34">C-25</text><path d="M280 295h220" stroke="#8fe6df" stroke-width="6"/></g><circle cx="552" cy="346" r="44" fill="#d7b46a" opacity=".65"/></g>
  <g font-family="Cinzel, Georgia, serif" text-anchor="middle">
    <text x="640" y="94" fill="#f4dfad" font-size="34" letter-spacing="7">NAMES</text>
    <text x="640" y="636" fill="#8fe6df" font-size="18" letter-spacing="5">SEVENTH FREQUENCY ARCHIVE</text>
  </g>
  <rect width="1280" height="720" fill="#000" opacity=".12"/>
</svg>
