<svg xmlns="http://www.w3.org/2000/svg" viewBox="0 0 1280 720" role="img" aria-label="Underground frequency transmitter">
  <defs>
    <radialGradient id="core" cx=".5" cy=".42" r=".46">
      <stop offset="0" stop-color="#f4e4bc"/>
      <stop offset=".2" stop-color="#d4af37" stop-opacity=".75"/>
      <stop offset=".56" stop-color="#00d9e8" stop-opacity=".24"/>
      <stop offset="1" stop-color="#00d9e8" stop-opacity="0"/>
    </radialGradient>
  </defs>
  <rect width="1280" height="720" fill="#090705"/>
  <path d="M90 620h1100v-390c-92-52-212-82-356-92-170-12-312 18-438 72-128 55-224 132-306 232z" fill="#17110b"/>
  <rect x="176" y="248" width="928" height="350" fill="#100b08" stroke="#5c4033"/>
  <circle cx="640" cy="382" r="222" fill="url(#core)"/>
  <g fill="none" stroke="#d4af37" stroke-width="6" opacity=".8">
    <ellipse cx="640" cy="382" rx="264" ry="98"/>
    <ellipse cx="640" cy="382" rx="212" ry="78"/>
    <ellipse cx="640" cy="382" rx="160" ry="58"/>
  </g>
  <g fill="none" stroke="#00d9e8" stroke-width="3" stroke-opacity=".58">
    <path d="M210 382c108-82 210-122 306-120 74 2 124 31 184 68 88 54 179 82 370 18"/>
    <path d="M210 430c137-58 252-72 347-36 76 29 126 84 204 100 80 16 174-8 310-72"/>
  </g>
  <rect x="580" y="214" width="120" height="270" rx="60" fill="#0c0b09" stroke="#d4af37" stroke-width="4"/>
  <path d="M640 238v222M610 268h60M606 316h68M602 364h76M608 412h64" stroke="#f4e4bc" stroke-opacity=".65" stroke-width="4"/>
  <path d="M360 597V258M920 597V258" stroke="#5c4033" stroke-width="12"/>
  <path d="M322 258h76M882 258h76" stroke="#d4af37" stroke-width="5"/>
  <text x="486" y="656" fill="#c4a77d" font-family="JetBrains Mono, monospace" font-size="28" letter-spacing="6">ANCHOR LEVEL: 07</text>
</svg>
