<svg xmlns="http://www.w3.org/2000/svg" viewBox="0 0 1280 720" role="img" aria-label="False death list">
  <defs>
    <linearGradient id="paper" x1="0" y1="0" x2="1" y2="1">
      <stop offset="0" stop-color="#efe1c6"/>
      <stop offset=".55" stop-color="#c4a77d"/>
      <stop offset="1" stop-color="#7c6448"/>
    </linearGradient>
  </defs>
  <rect width="1280" height="720" fill="#0c0806"/>
  <rect x="142" y="74" width="996" height="572" rx="4" fill="#1a120c" stroke="#8f6f1e" stroke-width="3"/>
  <g transform="rotate(-3 640 360)">
    <rect x="260" y="118" width="760" height="488" fill="url(#paper)"/>
    <path d="M310 190h660M310 250h660M310 310h660M310 370h660M310 430h660M310 490h660" stroke="#5c4033" stroke-opacity=".34" stroke-width="2"/>
    <text x="334" y="166" fill="#3d2b1f" font-family="JetBrains Mono, monospace" font-size="30" letter-spacing="5">FALSE DEATH LEDGER</text>
    <g font-family="MiSans, sans-serif" font-size="27" fill="#2b1b12">
      <text x="332" y="228">沈默</text>
      <text x="332" y="288">林若兰</text>
      <text x="332" y="348">陈子轩</text>
      <text x="332" y="408">顾老三</text>
      <text x="332" y="468">白锦书</text>
      <text x="332" y="528">周老板</text>
    </g>
    <g stroke-width="5" fill="none" opacity=".85">
      <path d="M475 220C590 165 710 170 850 238" stroke="#b22222"/>
      <path d="M475 282C620 342 742 338 888 288" stroke="#006b78"/>
      <path d="M475 344C640 404 750 424 914 468" stroke="#b22222"/>
      <path d="M475 406C602 366 706 384 892 528" stroke="#006b78"/>
      <path d="M475 466C600 504 730 506 902 410" stroke="#b22222"/>
    </g>
    <circle cx="850" cy="238" r="9" fill="#b22222"/>
    <circle cx="888" cy="288" r="9" fill="#006b78"/>
    <circle cx="914" cy="468" r="9" fill="#b22222"/>
    <circle cx="892" cy="528" r="9" fill="#006b78"/>
  </g>
  <path d="M170 654c260-38 700-34 940 0" stroke="#d4af37" stroke-opacity=".24" stroke-width="3"/>
</svg>
